<svg width="775" height="181" viewBox="0 0 775 181" fill="none" xmlns="http://www.w3.org/2000/svg">
<path fill-rule="evenodd" clip-rule="evenodd" d="M256 0.0206299V0H254.5H112H56H0C0 8.01062 1.44849 15.9428 4.26276 23.3437C7.077 30.7445 11.2019 37.4691 16.402 43.1335C21.6021 48.7979 27.7755 53.2911 34.5697 56.3567C41.364 59.4222 48.646 61 56 61H87.0854C88.7482 94.9948 114.489 122 146 122C150.463 122 154.829 121.965 159.041 121.812C159.014 122.538 159 123.267 159 124C159 154.029 182.19 178.437 211 178.99V179H212H283C296.807 179 308 167.807 308 154V58C308 57.4008 307.977 56.807 307.932 56.2193C307.977 55.3185 308 54.412 308 53.5C308 24.4544 284.854 0.814941 256 0.0206299Z" fill="#656565"/>
<mask id="mask0" mask-type="alpha" maskUnits="userSpaceOnUse" x="0" y="0" width="308" height="179">
<path fill-rule="evenodd" clip-rule="evenodd" d="M256 0.020628V5.33279e-06H254.5H112H56L0 0C0 8.01063 1.44848 15.9428 4.26274 23.3437C7.07701 30.7446 11.2019 37.4691 16.402 43.1335C21.6021 48.7979 27.7755 53.2911 34.5697 56.3567C41.364 59.4222 48.646 61 56 61H87.0854C88.7482 94.9948 114.489 122 146 122C150.463 122 154.829 121.965 159.041 121.812C159.014 122.538 159 123.267 159 124C159 154.029 182.19 178.437 211 178.99V179H212H283C296.807 179 308 167.807 308 154V58C308 57.4008 307.977 56.807 307.932 56.2193C307.977 55.3186 308 54.412 308 53.5C308 24.4544 284.854 0.814941 256 0.020628Z" fill="#C4C4C4"/>
</mask>
<g mask="url(#mask0)">
<circle cx="238.5" cy="89.5" r="25.5" fill="white"/>
<ellipse cx="239.5" cy="183.5" rx="51.5" ry="63.5" fill="white"/>
</g>
<path d="M383.28 62.92V89.56H429.936V108.28H383.28V145H359.952V44.2H436.128V62.92H383.28ZM450.337 38.152H472.801V145H450.337V38.152ZM570.545 67.528L535.553 149.752C532.001 158.68 527.585 164.968 522.305 168.616C517.121 172.264 510.833 174.088 503.441 174.088C499.409 174.088 495.425 173.464 491.489 172.216C487.553 170.968 484.337 169.24 481.841 167.032L490.049 151.048C491.777 152.584 493.745 153.784 495.953 154.648C498.257 155.512 500.513 155.944 502.721 155.944C505.793 155.944 508.289 155.176 510.209 153.64C512.129 152.2 513.857 149.752 515.393 146.296L515.681 145.576L482.129 67.528H505.313L527.057 120.088L548.945 67.528H570.545Z" fill="#656565"/>
<path d="M669.648 44.2V145H662.304V97.048H594.912V145H587.568V44.2H594.912V90.568H662.304V44.2H669.648ZM758.273 145L734.225 111.304C730.673 111.784 727.409 112.024 724.433 112.024H695.633V145H688.289V44.2H724.433C737.105 44.2 747.041 47.224 754.241 53.272C761.441 59.224 765.041 67.528 765.041 78.184C765.041 86.152 762.977 92.872 758.849 98.344C754.817 103.72 749.009 107.512 741.425 109.72L766.625 145H758.273ZM724.433 105.544C735.185 105.544 743.393 103.192 749.057 98.488C754.721 93.688 757.553 86.92 757.553 78.184C757.553 69.448 754.721 62.728 749.057 58.024C743.393 53.224 735.185 50.824 724.433 50.824H695.633V105.544H724.433Z" fill="#A9A9A9"/>
</svg>
